<svg width="20" height="20" viewBox="0 0 20 20" fill="none" xmlns="http://www.w3.org/2000/svg">
<path d="M17.5001 6.66667H14.1667C12.7834 6.66667 11.6667 5.55 11.6667 4.16667V0.833333C11.6667 0.366667 11.3001 0 10.8334 0H3.33341C2.41675 0 1.66675 0.75 1.66675 1.66667V18.3333C1.66675 19.25 2.41675 20 3.33341 20H16.6667C17.5834 20 18.3334 19.25 18.3334 18.3333V7.5C18.3334 7.03333 17.9667 6.66667 17.5001 6.66667ZM13.3334 0.833333V3.33333C13.3334 4.25 14.0834 5 15.0001 5H17.5001C18.2501 5 18.6167 4.1 18.0834 3.58333L14.7501 0.25C14.2334 -0.283333 13.3334 0.1 13.3334 0.833333Z" fill="black"/>
<path d="M6.66667 17C6.66667 17 6 17 6 16.3333C6 15.6667 6.66667 13.6667 10 13.6667C13.3333 13.6667 14 15.6667 14 16.3333C14 17 13.3333 17 13.3333 17H6.66667ZM10 13C10.5304 13 11.0391 12.7893 11.4142 12.4142C11.7893 12.0391 12 11.5304 12 11C12 10.4696 11.7893 9.96086 11.4142 9.58579C11.0391 9.21071 10.5304 9 10 9C9.46957 9 8.96086 9.21071 8.58579 9.58579C8.21071 9.96086 8 10.4696 8 11C8 11.5304 8.21071 12.0391 8.58579 12.4142C8.96086 12.7893 9.46957 13 10 13Z" fill="white"/>
</svg>
