<svg width="16" height="16" viewBox="0 0 16 16" fill="none" xmlns="http://www.w3.org/2000/svg">
<path fill-rule="evenodd" clip-rule="evenodd" d="M7.775 3.27518C7.64252 3.41735 7.57039 3.6054 7.57382 3.7997C7.57725 3.994 7.65596 4.17938 7.79337 4.3168C7.93079 4.45421 8.11617 4.53292 8.31047 4.53635C8.50477 4.53978 8.69282 4.46766 8.835 4.33518L10.085 3.08518C10.2708 2.89936 10.4914 2.75195 10.7342 2.65139C10.977 2.55082 11.2372 2.49906 11.5 2.49906C11.7628 2.49906 12.023 2.55082 12.2658 2.65139C12.5086 2.75195 12.7292 2.89936 12.915 3.08518C13.1008 3.271 13.2482 3.4916 13.3488 3.73438C13.4493 3.97717 13.5011 4.23739 13.5011 4.50018C13.5011 4.76297 13.4493 5.02318 13.3488 5.26597C13.2482 5.50875 13.1008 5.72935 12.915 5.91518L10.415 8.41518C10.2292 8.60113 10.0087 8.74865 9.76588 8.84929C9.52308 8.94994 9.26283 9.00175 9 9.00175C8.73716 9.00175 8.47691 8.94994 8.23411 8.84929C7.99132 8.74865 7.77074 8.60113 7.585 8.41518C7.44282 8.2827 7.25477 8.21057 7.06047 8.214C6.86617 8.21743 6.68079 8.29614 6.54337 8.43355C6.40596 8.57097 6.32725 8.75635 6.32382 8.95065C6.32039 9.14495 6.39252 9.333 6.525 9.47518C6.85001 9.80022 7.23586 10.0581 7.66052 10.234C8.08518 10.4099 8.54034 10.5004 9 10.5004C9.45965 10.5004 9.91481 10.4099 10.3395 10.234C10.7641 10.0581 11.15 9.80022 11.475 9.47518L13.975 6.97518C14.6314 6.31876 15.0002 5.42848 15.0002 4.50018C15.0002 3.57187 14.6314 2.68159 13.975 2.02518C13.3186 1.36876 12.4283 1 11.5 1C10.5717 1 9.68141 1.36876 9.02499 2.02518L7.775 3.27518ZM3.085 12.9152C2.89904 12.7294 2.75152 12.5089 2.65088 12.2661C2.55023 12.0233 2.49842 11.763 2.49842 11.5002C2.49842 11.2374 2.55023 10.9771 2.65088 10.7343C2.75152 10.4915 2.89904 10.2709 3.085 10.0852L5.585 7.58518C5.77074 7.39922 5.99132 7.2517 6.23411 7.15106C6.47691 7.05041 6.73716 6.9986 7 6.9986C7.26283 6.9986 7.52308 7.05041 7.76588 7.15106C8.00867 7.2517 8.22925 7.39922 8.415 7.58518C8.55717 7.71766 8.74522 7.78978 8.93952 7.78635C9.13382 7.78292 9.3192 7.70421 9.45662 7.5668C9.59403 7.42938 9.67274 7.244 9.67617 7.0497C9.6796 6.8554 9.60748 6.66735 9.475 6.52518C9.14999 6.20013 8.76413 5.94229 8.33947 5.76638C7.91481 5.59047 7.45965 5.49992 7 5.49992C6.54034 5.49992 6.08518 5.59047 5.66052 5.76638C5.23586 5.94229 4.85001 6.20013 4.525 6.52518L2.025 9.02517C1.36858 9.68159 0.999817 10.5719 0.999817 11.5002C0.999817 12.4285 1.36858 13.3188 2.025 13.9752C2.68141 14.6316 3.57169 15.0004 4.5 15.0004C5.4283 15.0004 6.31858 14.6316 6.975 13.9752L8.225 12.7252C8.35748 12.583 8.4296 12.395 8.42617 12.2007C8.42274 12.0064 8.34403 11.821 8.20662 11.6836C8.0692 11.5462 7.88382 11.4674 7.68952 11.464C7.49522 11.4606 7.30717 11.5327 7.165 11.6652L5.915 12.9152C5.72925 13.1011 5.50867 13.2487 5.26588 13.3493C5.02308 13.45 4.76283 13.5018 4.5 13.5018C4.23716 13.5018 3.97691 13.45 3.73411 13.3493C3.49132 13.2487 3.27074 13.1011 3.085 12.9152Z" fill="#21252A"/>
</svg>
